<svg width="24" height="25" viewBox="0 0 24 25" fill="none" xmlns="http://www.w3.org/2000/svg">
<path d="M12 24.0574L10.77 22.846C8.65 20.7286 6.9 18.9005 5.52 17.3617C4.14 15.8228 3.04 14.4476 2.22 13.2362C1.4 12.0247 0.825 10.9278 0.495 9.94556C0.165 8.9633 0 7.97012 0 6.96603C0 5.0015 0.605 3.35893 1.815 2.03833C3.025 0.717734 4.52 0.0574341 6.3 0.0574341C7.44 0.0574341 8.495 0.352113 9.465 0.941472C10.435 1.53083 11.28 2.38213 12 3.49536C12.84 2.31664 13.73 1.44898 14.67 0.892359C15.61 0.335742 16.62 0.0574341 17.7 0.0574341C19.48 0.0574341 20.975 0.717734 22.185 2.03833C23.395 3.35893 24 5.0015 24 6.96603C24 7.97012 23.835 8.9633 23.505 9.94556C23.175 10.9278 22.6 12.0247 21.78 13.2362C20.96 14.4476 19.86 15.8228 18.48 17.3617C17.1 18.9005 15.35 20.7286 13.23 22.846L12 24.0574ZM12 21.4708C14.02 19.4408 15.685 17.7 16.995 16.2484C18.305 14.7969 19.345 13.5254 20.115 12.434C20.885 11.3426 21.425 10.3712 21.735 9.51992C22.045 8.66862 22.2 7.81732 22.2 6.96603C22.2 5.52537 21.78 4.3412 20.94 3.4135C20.1 2.48581 19.02 2.02196 17.7 2.02196C16.68 2.02196 15.73 2.36576 14.85 3.05334C13.97 3.74093 13.26 4.70682 12.72 5.95102H11.25C10.73 4.72865 10.03 3.76821 9.15 3.06971C8.27 2.37121 7.32 2.02196 6.3 2.02196C4.98 2.02196 3.9 2.48581 3.06 3.4135C2.22 4.3412 1.8 5.52537 1.8 6.96603C1.8 7.81732 1.955 8.67408 2.265 9.53629C2.575 10.3985 3.115 11.3808 3.885 12.4831C4.655 13.5854 5.7 14.8569 7.02 16.2975C8.34 17.7382 10 19.4626 12 21.4708Z" fill="white"/>
</svg>
