<svg width="14" height="19" viewBox="0 0 14 19" fill="none" xmlns="http://www.w3.org/2000/svg">
<path fill-rule="evenodd" clip-rule="evenodd" d="M7 18.6667C7 18.6667 14 13.5758 14 7.63636C14 5.61107 13.2625 3.66873 11.9497 2.23664C10.637 0.804543 8.85652 0 7 0C5.14348 0 3.36301 0.804543 2.05025 2.23664C0.737498 3.66873 0 5.61107 0 7.63636C0 13.5758 7 18.6667 7 18.6667ZM10.5 7.63635C10.5 9.51077 8.933 11.0303 7 11.0303C5.067 11.0303 3.5 9.51077 3.5 7.63635C3.5 5.76193 5.067 4.24241 7 4.24241C8.933 4.24241 10.5 5.76193 10.5 7.63635Z" fill="#D9D9D9"/>
</svg>
