<svg width="24" height="25" viewBox="0 0 24 25" fill="none" xmlns="http://www.w3.org/2000/svg">
<path d="M12 11.6516C10.35 11.6516 9 11.1106 7.95 10.0284C6.9 8.94632 6.375 7.55502 6.375 5.85454C6.375 4.15405 6.9 2.76275 7.95 1.68062C9 0.598497 10.35 0.0574341 12 0.0574341C13.65 0.0574341 15 0.598497 16.05 1.68062C17.1 2.76275 17.625 4.15405 17.625 5.85454C17.625 7.55502 17.1 8.94632 16.05 10.0284C15 11.1106 13.65 11.6516 12 11.6516ZM0 24.0574V20.4246C0 19.4455 0.2375 18.6082 0.7125 17.9125C1.1875 17.2169 1.8 16.6887 2.55 16.328C4.225 15.555 5.83125 14.9753 7.36875 14.5888C8.90625 14.2024 10.45 14.0091 12 14.0091C13.55 14.0091 15.0875 14.2088 16.6125 14.6082C18.1375 15.0075 19.7375 15.5808 21.4125 16.328C22.1875 16.6887 22.8125 17.2169 23.2875 17.9125C23.7625 18.6082 24 19.4455 24 20.4246V24.0574H0ZM2.25 21.7386H21.75V20.4246C21.75 20.0123 21.6313 19.6194 21.3938 19.2458C21.1563 18.8722 20.8625 18.5953 20.5125 18.4149C18.9125 17.6162 17.45 17.0687 16.125 16.7724C14.8 16.4761 13.425 16.328 12 16.328C10.575 16.328 9.1875 16.4761 7.8375 16.7724C6.4875 17.0687 5.025 17.6162 3.45 18.4149C3.1 18.5953 2.8125 18.8722 2.5875 19.2458C2.3625 19.6194 2.25 20.0123 2.25 20.4246V21.7386ZM12 9.3328C12.975 9.3328 13.7813 9.00429 14.4188 8.34729C15.0563 7.69028 15.375 6.85937 15.375 5.85454C15.375 4.84971 15.0563 4.01879 14.4188 3.36178C13.7813 2.70478 12.975 2.37627 12 2.37627C11.025 2.37627 10.2187 2.70478 9.58125 3.36178C8.94375 4.01879 8.625 4.84971 8.625 5.85454C8.625 6.85937 8.94375 7.69028 9.58125 8.34729C10.2187 9.00429 11.025 9.3328 12 9.3328Z" fill="white"/>
</svg>
