<svg width="24" height="25" viewBox="0 0 24 25" fill="none" xmlns="http://www.w3.org/2000/svg">
<path d="M22.5333 24.0574L13.7667 15.2908C13.1 15.8685 12.3222 16.3185 11.4333 16.6408C10.5444 16.963 9.6 17.1241 8.6 17.1241C6.2 17.1241 4.16667 16.2908 2.5 14.6241C0.833333 12.9574 0 10.9463 0 8.59077C0 6.23521 0.833333 4.2241 2.5 2.55743C4.16667 0.890767 6.18889 0.0574341 8.56667 0.0574341C10.9222 0.0574341 12.9278 0.890767 14.5833 2.55743C16.2389 4.2241 17.0667 6.23521 17.0667 8.59077C17.0667 9.54632 16.9111 10.4685 16.6 11.3574C16.2889 12.2463 15.8222 13.0797 15.2 13.8574L24 22.5908L22.5333 24.0574ZM8.56667 15.1241C10.3667 15.1241 11.9 14.4852 13.1667 13.2074C14.4333 11.9297 15.0667 10.3908 15.0667 8.59077C15.0667 6.79077 14.4333 5.25188 13.1667 3.9741C11.9 2.69632 10.3667 2.05743 8.56667 2.05743C6.74444 2.05743 5.19444 2.69632 3.91667 3.9741C2.63889 5.25188 2 6.79077 2 8.59077C2 10.3908 2.63889 11.9297 3.91667 13.2074C5.19444 14.4852 6.74444 15.1241 8.56667 15.1241Z" fill="white"/>
</svg>
