<svg width="24" height="25" viewBox="0 0 24 25" fill="none" xmlns="http://www.w3.org/2000/svg">
<path d="M7.22449 24.0574C6.61225 24.0574 6.09184 23.8472 5.66327 23.4266C5.23469 23.0061 5.02041 22.4955 5.02041 21.8947C5.02041 21.294 5.23469 20.7833 5.66327 20.3628C6.09184 19.9423 6.61225 19.732 7.22449 19.732C7.83673 19.732 8.35714 19.9423 8.78571 20.3628C9.21429 20.7833 9.42857 21.294 9.42857 21.8947C9.42857 22.4955 9.21429 23.0061 8.78571 23.4266C8.35714 23.8472 7.83673 24.0574 7.22449 24.0574ZM19.4694 24.0574C18.8571 24.0574 18.3367 23.8472 17.9082 23.4266C17.4796 23.0061 17.2653 22.4955 17.2653 21.8947C17.2653 21.294 17.4796 20.7833 17.9082 20.3628C18.3367 19.9423 18.8571 19.732 19.4694 19.732C20.0816 19.732 20.602 19.9423 21.0306 20.3628C21.4592 20.7833 21.6735 21.294 21.6735 21.8947C21.6735 22.4955 21.4592 23.0061 21.0306 23.4266C20.602 23.8472 20.0816 24.0574 19.4694 24.0574ZM5.63265 4.23265L9 11.0812H17.8163L21.6429 4.23265H5.63265ZM4.71429 2.4304H22.7449C23.2143 2.4304 23.5714 2.64066 23.8163 3.06119C24.0612 3.48171 24.0612 3.90224 23.8163 4.32277L19.6837 11.6219C19.4592 12.0024 19.1684 12.3077 18.8112 12.538C18.4541 12.7683 18.0612 12.8835 17.6327 12.8835H8.35714L6.64286 16.0074H21.6735V17.8096H6.91837C6.06122 17.8096 5.44388 17.5293 5.06633 16.9686C4.68878 16.4079 4.69388 15.7771 5.08163 15.0762L7.04082 11.5318L2.38776 1.85969H0V0.0574341H3.58163L4.71429 2.4304ZM9 11.0812H17.8163H9Z" fill="white"/>
</svg>
